<svg width="32" height="32" viewBox="0 0 32 32" fill="none" xmlns="http://www.w3.org/2000/svg">
<path d="M6 4.5H26C26.3978 4.5 26.7792 4.65815 27.0605 4.93945C27.3419 5.22076 27.5 5.60218 27.5 6V26C27.5 26.3978 27.3419 26.7792 27.0605 27.0605C26.7792 27.3419 26.3978 27.5 26 27.5H6C5.60218 27.5 5.22076 27.3419 4.93945 27.0605C4.65815 26.7792 4.5 26.3978 4.5 26V6C4.5 5.60218 4.65815 5.22076 4.93945 4.93945C5.18554 4.69337 5.50826 4.54195 5.85156 4.50781L6 4.5ZM5.5 26.5H26.5V5.5H5.5V26.5ZM21 12.499C21.0657 12.499 21.1307 12.512 21.1914 12.5371C21.2219 12.5498 21.251 12.5657 21.2783 12.584L21.3535 12.6455L21.3545 12.6465C21.4008 12.6929 21.4378 12.748 21.4629 12.8086C21.488 12.8693 21.501 12.9343 21.501 13C21.501 13.0657 21.488 13.1307 21.4629 13.1914C21.4502 13.2219 21.4343 13.251 21.416 13.2783L21.3545 13.3535H21.3535L14.3535 20.3535V20.3545C14.3071 20.4008 14.252 20.4378 14.1914 20.4629C14.1307 20.488 14.0657 20.501 14 20.501C13.9343 20.501 13.8693 20.488 13.8086 20.4629C13.7781 20.4502 13.749 20.4343 13.7217 20.416L13.6465 20.3545V20.3535L10.6465 17.3535C10.5526 17.2596 10.499 17.1328 10.499 17L10.5088 16.9023C10.528 16.8059 10.576 16.717 10.6465 16.6465C10.7404 16.5526 10.8672 16.499 11 16.499C11.1328 16.499 11.2596 16.5526 11.3535 16.6465V16.6455L13.6465 18.9395L14 19.2939L14.3535 18.9395L20.6465 12.6465V12.6455C20.6929 12.5992 20.748 12.5622 20.8086 12.5371C20.8693 12.512 20.9343 12.499 21 12.499Z" fill="#1E1E20" stroke="black"/>
</svg>
