<svg width="11" height="14" viewBox="0 0 11 14" fill="none" xmlns="http://www.w3.org/2000/svg">
<path d="M5.25 3.5C4.81735 3.5 4.39442 3.62829 4.03469 3.86866C3.67496 4.10903 3.39458 4.45067 3.22901 4.85038C3.06345 5.25009 3.02013 5.68993 3.10453 6.11426C3.18894 6.53859 3.39728 6.92837 3.7032 7.2343C4.00913 7.54022 4.39891 7.74856 4.82324 7.83297C5.24757 7.91737 5.68741 7.87405 6.08712 7.70849C6.48683 7.54292 6.82847 7.26254 7.06884 6.90281C7.30921 6.54308 7.4375 6.12015 7.4375 5.6875C7.4375 5.10734 7.20703 4.55094 6.7968 4.1407C6.38656 3.73047 5.83016 3.5 5.25 3.5ZM5.25 7C4.99041 7 4.73665 6.92302 4.52081 6.7788C4.30497 6.63458 4.13675 6.4296 4.03741 6.18977C3.93807 5.94994 3.91208 5.68604 3.96272 5.43144C4.01336 5.17684 4.13837 4.94298 4.32192 4.75942C4.50548 4.57587 4.73934 4.45086 4.99394 4.40022C5.24854 4.34958 5.51244 4.37557 5.75227 4.47491C5.9921 4.57425 6.19708 4.74247 6.3413 4.95831C6.48552 5.17415 6.5625 5.42791 6.5625 5.6875C6.5625 6.0356 6.42422 6.36944 6.17808 6.61558C5.93194 6.86172 5.5981 7 5.25 7ZM5.25 0.875C3.97409 0.876447 2.75085 1.38394 1.84865 2.28615C0.946442 3.18835 0.438947 4.41159 0.4375 5.6875C0.4375 7.40469 1.23102 9.22469 2.73438 10.9512C3.40989 11.7313 4.17017 12.4338 5.00117 13.0457C5.07473 13.0972 5.16237 13.1249 5.25219 13.1249C5.342 13.1249 5.42964 13.0972 5.5032 13.0457C6.33268 12.4336 7.09148 11.7311 7.76562 10.9512C9.2668 9.22469 10.0625 7.40469 10.0625 5.6875C10.0611 4.41159 9.55356 3.18835 8.65135 2.28615C7.74915 1.38394 6.52591 0.876447 5.25 0.875ZM5.25 12.1406C4.34602 11.4297 1.3125 8.81836 1.3125 5.6875C1.3125 4.64321 1.72734 3.64169 2.46577 2.90327C3.20419 2.16484 4.20571 1.75 5.25 1.75C6.29429 1.75 7.29581 2.16484 8.03423 2.90327C8.77266 3.64169 9.1875 4.64321 9.1875 5.6875C9.1875 8.81727 6.15398 11.4297 5.25 12.1406Z" fill="#C3C3C4"/>
</svg>
